<svg xmlns="http://www.w3.org/2000/svg" width="512" height="512" viewBox="0 0 512 512" shape-rendering="geometricPrecision">
<rect width="512" height="512" fill="#1e272e"/>
<polygon points="3.5,6.0 74.5,-3.0 77.5,60.0 4.5,73.0" fill="#39454b" stroke="#12181d" stroke-width="3" stroke-linejoin="round"/>
<polygon points="78.5,1.0 150.5,10.0 146.5,53.0 75.5,56.0" fill="#39454b" stroke="#12181d" stroke-width="3" stroke-linejoin="round"/>
<polygon points="100.5,28.5 118.5,25.5 110.5,38.5" fill="#1b2329" stroke="#1b2329" stroke-width="1" stroke-linejoin="round"/>
<polygon points="155.5,-1.0 189.5,7.0 198.5,60.0 136.5,57.0" fill="#202930" stroke="#12181d" stroke-width="3" stroke-linejoin="round"/>
<polygon points="165.0,28.5 183.0,25.5 175.0,38.5" fill="#1b2329" stroke="#1b2329" stroke-width="1" stroke-linejoin="round"/>
<polygon points="195.5,-6.0 256.5,-8.0 268.5,73.0 208.5,72.0" fill="#2b363f" stroke="#12181d" stroke-width="3" stroke-linejoin="round"/>
<polygon points="262.5,-7.0 339.5,9.0 331.5,60.0 263.5,63.0" fill="#202930" stroke="#12181d" stroke-width="3" stroke-linejoin="round"/>
<polygon points="339.5,5.0 395.5,2.0 394.5,60.0 341.5,66.0" fill="#39454b" stroke="#12181d" stroke-width="3" stroke-linejoin="round"/>
<polygon points="382.5,5.0 460.5,8.0 462.5,53.0 391.5,57.0" fill="#303c43" stroke="#12181d" stroke-width="3" stroke-linejoin="round"/>
<polygon points="479.5,7.0 516.5,7.0 512.5,70.0 462.5,55.0" fill="#39454b" stroke="#12181d" stroke-width="3" stroke-linejoin="round"/>
<polygon points="-5.1,54.0 64.9,61.0 60.1,122.0 -0.9,125.0" fill="#202930" stroke="#12181d" stroke-width="3" stroke-linejoin="round"/>
<polygon points="67.9,57.0 139.9,73.0 148.1,135.0 63.1,131.0" fill="#303c43" stroke="#12181d" stroke-width="3" stroke-linejoin="round"/>
<polygon points="144.9,68.0 193.9,71.0 205.1,135.0 139.1,132.0" fill="#465158" stroke="#12181d" stroke-width="3" stroke-linejoin="round"/>
<polygon points="193.9,64.0 259.9,61.0 256.1,118.0 205.1,129.0" fill="#39454b" stroke="#12181d" stroke-width="3" stroke-linejoin="round"/>
<polygon points="253.9,69.0 329.9,69.0 337.1,126.0 269.1,120.0" fill="#202930" stroke="#12181d" stroke-width="3" stroke-linejoin="round"/>
<polygon points="290.0,91.5 308.0,88.5 300.0,101.5" fill="#1b2329" stroke="#1b2329" stroke-width="1" stroke-linejoin="round"/>
<polygon points="345.9,69.0 379.9,68.0 388.1,118.0 336.1,135.0" fill="#2b363f" stroke="#12181d" stroke-width="3" stroke-linejoin="round"/>
<polygon points="393.9,59.0 460.9,67.0 469.1,130.0 385.1,124.0" fill="#39454b" stroke="#12181d" stroke-width="3" stroke-linejoin="round"/>
<polygon points="474.9,55.0 513.9,57.0 519.1,117.0 468.1,134.0" fill="#303c43" stroke="#12181d" stroke-width="3" stroke-linejoin="round"/>
<polygon points="482.5,91.5 500.5,88.5 492.5,101.5" fill="#1b2329" stroke="#1b2329" stroke-width="1" stroke-linejoin="round"/>
<polygon points="-0.6,125.0 76.4,126.0 77.6,200.0 0.6,192.0" fill="#202930" stroke="#12181d" stroke-width="3" stroke-linejoin="round"/>
<polygon points="78.4,122.0 143.4,121.0 152.6,186.0 72.6,193.0" fill="#39454b" stroke="#12181d" stroke-width="3" stroke-linejoin="round"/>
<polygon points="151.4,122.0 187.4,135.0 204.6,187.0 157.6,191.0" fill="#39454b" stroke="#12181d" stroke-width="3" stroke-linejoin="round"/>
<polygon points="165.0,156.5 183.0,153.5 175.0,166.5" fill="#1b2329" stroke="#1b2329" stroke-width="1" stroke-linejoin="round"/>
<polygon points="207.4,124.0 260.4,119.0 267.6,192.0 202.6,195.0" fill="#26313a" stroke="#12181d" stroke-width="3" stroke-linejoin="round"/>
<polygon points="259.4,120.0 334.4,134.0 342.6,194.0 252.6,200.0" fill="#2b363f" stroke="#12181d" stroke-width="3" stroke-linejoin="round"/>
<polygon points="339.4,130.0 388.4,117.0 386.6,190.0 329.6,201.0" fill="#303c43" stroke="#12181d" stroke-width="3" stroke-linejoin="round"/>
<polygon points="394.4,123.0 472.4,125.0 470.6,185.0 395.6,186.0" fill="#303c43" stroke="#12181d" stroke-width="3" stroke-linejoin="round"/>
<polygon points="466.4,132.0 500.4,124.0 522.6,191.0 460.6,189.0" fill="#2b363f" stroke="#12181d" stroke-width="3" stroke-linejoin="round"/>
<polygon points="482.5,156.5 500.5,153.5 492.5,166.5" fill="#1b2329" stroke="#1b2329" stroke-width="1" stroke-linejoin="round"/>
<polygon points="8.1,199.0 61.1,186.0 80.9,252.0 2.9,243.0" fill="#26313a" stroke="#12181d" stroke-width="3" stroke-linejoin="round"/>
<polygon points="68.1,201.0 137.1,186.0 148.9,241.0 60.9,238.0" fill="#202930" stroke="#12181d" stroke-width="3" stroke-linejoin="round"/>
<polygon points="142.1,196.0 190.1,199.0 203.9,243.0 147.9,255.0" fill="#26313a" stroke="#12181d" stroke-width="3" stroke-linejoin="round"/>
<polygon points="189.1,196.0 249.1,203.0 263.9,239.0 194.9,248.0" fill="#202930" stroke="#12181d" stroke-width="3" stroke-linejoin="round"/>
<polygon points="221.0,216.5 239.0,213.5 231.0,226.5" fill="#1b2329" stroke="#1b2329" stroke-width="1" stroke-linejoin="round"/>
<polygon points="250.1,191.0 345.1,185.0 330.9,241.0 260.9,247.0" fill="#39454b" stroke="#12181d" stroke-width="3" stroke-linejoin="round"/>
<polygon points="346.1,184.0 384.1,186.0 393.9,253.0 346.9,247.0" fill="#202930" stroke="#12181d" stroke-width="3" stroke-linejoin="round"/>
<polygon points="354.5,216.5 372.5,213.5 364.5,226.5" fill="#1b2329" stroke="#1b2329" stroke-width="1" stroke-linejoin="round"/>
<polygon points="385.1,191.0 477.1,194.0 465.9,247.0 382.9,249.0" fill="#465158" stroke="#12181d" stroke-width="3" stroke-linejoin="round"/>
<polygon points="458.1,193.0 518.1,187.0 505.9,242.0 465.9,255.0" fill="#39454b" stroke="#12181d" stroke-width="3" stroke-linejoin="round"/>
<polygon points="-3.0,249.0 78.0,251.0 73.0,308.0 -5.0,303.0" fill="#465158" stroke="#12181d" stroke-width="3" stroke-linejoin="round"/>
<polygon points="78.0,240.0 148.0,255.0 157.0,308.0 70.0,301.0" fill="#465158" stroke="#12181d" stroke-width="3" stroke-linejoin="round"/>
<polygon points="145.0,252.0 204.0,254.0 194.0,305.0 145.0,301.0" fill="#303c43" stroke="#12181d" stroke-width="3" stroke-linejoin="round"/>
<polygon points="200.0,251.0 249.0,254.0 251.0,308.0 196.0,309.0" fill="#202930" stroke="#12181d" stroke-width="3" stroke-linejoin="round"/>
<polygon points="221.0,270.5 239.0,267.5 231.0,280.5" fill="#1b2329" stroke="#1b2329" stroke-width="1" stroke-linejoin="round"/>
<polygon points="252.0,236.0 332.0,247.0 348.0,294.0 265.0,295.0" fill="#303c43" stroke="#12181d" stroke-width="3" stroke-linejoin="round"/>
<polygon points="339.0,254.0 379.0,255.0 400.0,304.0 337.0,301.0" fill="#39454b" stroke="#12181d" stroke-width="3" stroke-linejoin="round"/>
<polygon points="377.0,256.0 465.0,242.0 478.0,298.0 393.0,297.0" fill="#465158" stroke="#12181d" stroke-width="3" stroke-linejoin="round"/>
<polygon points="470.0,242.0 512.0,239.0 504.0,302.0 468.0,301.0" fill="#465158" stroke="#12181d" stroke-width="3" stroke-linejoin="round"/>
<polygon points="482.5,270.5 500.5,267.5 492.5,280.5" fill="#1b2329" stroke="#1b2329" stroke-width="1" stroke-linejoin="round"/>
<polygon points="-6.5,292.0 72.5,303.0 58.5,359.0 1.5,368.0" fill="#303c43" stroke="#12181d" stroke-width="3" stroke-linejoin="round"/>
<polygon points="27.0,331.5 45.0,328.5 37.0,341.5" fill="#1b2329" stroke="#1b2329" stroke-width="1" stroke-linejoin="round"/>
<polygon points="71.5,294.0 157.5,308.0 155.5,360.0 68.5,369.0" fill="#465158" stroke="#12181d" stroke-width="3" stroke-linejoin="round"/>
<polygon points="139.5,308.0 191.5,310.0 191.5,362.0 141.5,372.0" fill="#26313a" stroke="#12181d" stroke-width="3" stroke-linejoin="round"/>
<polygon points="208.5,295.0 250.5,309.0 263.5,370.0 191.5,362.0" fill="#303c43" stroke="#12181d" stroke-width="3" stroke-linejoin="round"/>
<polygon points="221.0,331.5 239.0,328.5 231.0,341.5" fill="#1b2329" stroke="#1b2329" stroke-width="1" stroke-linejoin="round"/>
<polygon points="259.5,291.0 334.5,305.0 329.5,365.0 259.5,358.0" fill="#202930" stroke="#12181d" stroke-width="3" stroke-linejoin="round"/>
<polygon points="345.5,311.0 399.5,308.0 377.5,368.0 327.5,358.0" fill="#26313a" stroke="#12181d" stroke-width="3" stroke-linejoin="round"/>
<polygon points="389.5,306.0 461.5,292.0 476.5,360.0 377.5,377.0" fill="#39454b" stroke="#12181d" stroke-width="3" stroke-linejoin="round"/>
<polygon points="469.5,305.0 511.5,291.0 509.5,369.0 466.5,376.0" fill="#202930" stroke="#12181d" stroke-width="3" stroke-linejoin="round"/>
<polygon points="482.5,331.5 500.5,328.5 492.5,341.5" fill="#1b2329" stroke="#1b2329" stroke-width="1" stroke-linejoin="round"/>
<polygon points="-6.7,368.0 59.3,375.0 74.7,415.0 -1.3,423.0" fill="#303c43" stroke="#12181d" stroke-width="3" stroke-linejoin="round"/>
<polygon points="27.0,388.5 45.0,385.5 37.0,398.5" fill="#1b2329" stroke="#1b2329" stroke-width="1" stroke-linejoin="round"/>
<polygon points="79.3,373.0 139.3,372.0 152.7,408.0 65.7,407.0" fill="#39454b" stroke="#12181d" stroke-width="3" stroke-linejoin="round"/>
<polygon points="100.5,388.5 118.5,385.5 110.5,398.5" fill="#1b2329" stroke="#1b2329" stroke-width="1" stroke-linejoin="round"/>
<polygon points="149.3,370.0 189.3,373.0 201.7,421.0 140.7,411.0" fill="#39454b" stroke="#12181d" stroke-width="3" stroke-linejoin="round"/>
<polygon points="188.3,360.0 259.3,372.0 252.7,422.0 192.7,410.0" fill="#303c43" stroke="#12181d" stroke-width="3" stroke-linejoin="round"/>
<polygon points="221.0,388.5 239.0,385.5 231.0,398.5" fill="#1b2329" stroke="#1b2329" stroke-width="1" stroke-linejoin="round"/>
<polygon points="250.3,367.0 328.3,365.0 346.7,414.0 261.7,417.0" fill="#202930" stroke="#12181d" stroke-width="3" stroke-linejoin="round"/>
<polygon points="335.3,358.0 384.3,365.0 382.7,415.0 338.7,413.0" fill="#465158" stroke="#12181d" stroke-width="3" stroke-linejoin="round"/>
<polygon points="387.3,375.0 458.3,376.0 475.7,416.0 386.7,423.0" fill="#39454b" stroke="#12181d" stroke-width="3" stroke-linejoin="round"/>
<polygon points="468.3,368.0 515.3,371.0 511.7,411.0 479.7,413.0" fill="#465158" stroke="#12181d" stroke-width="3" stroke-linejoin="round"/>
<polygon points="482.5,388.5 500.5,385.5 492.5,398.5" fill="#1b2329" stroke="#1b2329" stroke-width="1" stroke-linejoin="round"/>
<polygon points="-8.0,405.0 63.0,418.0 73.0,488.0 4.0,488.0" fill="#2b363f" stroke="#12181d" stroke-width="3" stroke-linejoin="round"/>
<polygon points="65.0,420.0 149.0,420.0 152.0,490.0 70.0,487.0" fill="#303c43" stroke="#12181d" stroke-width="3" stroke-linejoin="round"/>
<polygon points="100.5,448.0 118.5,445.0 110.5,458.0" fill="#1b2329" stroke="#1b2329" stroke-width="1" stroke-linejoin="round"/>
<polygon points="140.0,413.0 200.0,406.0 202.0,478.0 151.0,480.0" fill="#26313a" stroke="#12181d" stroke-width="3" stroke-linejoin="round"/>
<polygon points="165.0,448.0 183.0,445.0 175.0,458.0" fill="#1b2329" stroke="#1b2329" stroke-width="1" stroke-linejoin="round"/>
<polygon points="189.0,418.0 252.0,414.0 262.0,478.0 195.0,485.0" fill="#39454b" stroke="#12181d" stroke-width="3" stroke-linejoin="round"/>
<polygon points="266.0,409.0 326.0,406.0 341.0,477.0 269.0,481.0" fill="#2b363f" stroke="#12181d" stroke-width="3" stroke-linejoin="round"/>
<polygon points="290.0,448.0 308.0,445.0 300.0,458.0" fill="#1b2329" stroke="#1b2329" stroke-width="1" stroke-linejoin="round"/>
<polygon points="327.0,406.0 386.0,420.0 386.0,490.0 329.0,493.0" fill="#465158" stroke="#12181d" stroke-width="3" stroke-linejoin="round"/>
<polygon points="380.0,409.0 467.0,423.0 466.0,492.0 397.0,494.0" fill="#465158" stroke="#12181d" stroke-width="3" stroke-linejoin="round"/>
<polygon points="420.5,448.0 438.5,445.0 430.5,458.0" fill="#1b2329" stroke="#1b2329" stroke-width="1" stroke-linejoin="round"/>
<polygon points="470.0,424.0 512.0,409.0 506.0,478.0 466.0,491.0" fill="#202930" stroke="#12181d" stroke-width="3" stroke-linejoin="round"/>
<polygon points="482.5,448.0 500.5,445.0 492.5,458.0" fill="#1b2329" stroke="#1b2329" stroke-width="1" stroke-linejoin="round"/>
<polygon points="5.8,479.0 74.8,493.0 62.2,505.0 9.2,511.0" fill="#26313a" stroke="#12181d" stroke-width="3" stroke-linejoin="round"/>
<polygon points="74.8,495.0 147.8,484.0 157.2,505.0 72.2,520.0" fill="#26313a" stroke="#12181d" stroke-width="3" stroke-linejoin="round"/>
<polygon points="100.5,496.5 118.5,493.5 110.5,506.5" fill="#1b2329" stroke="#1b2329" stroke-width="1" stroke-linejoin="round"/>
<polygon points="149.8,483.0 195.8,493.0 199.2,515.0 140.2,507.0" fill="#39454b" stroke="#12181d" stroke-width="3" stroke-linejoin="round"/>
<polygon points="189.8,490.0 247.8,480.0 254.2,502.0 193.2,520.0" fill="#465158" stroke="#12181d" stroke-width="3" stroke-linejoin="round"/>
<polygon points="221.0,496.5 239.0,493.5 231.0,506.5" fill="#1b2329" stroke="#1b2329" stroke-width="1" stroke-linejoin="round"/>
<polygon points="246.8,490.0 335.8,478.0 335.2,505.0 251.2,516.0" fill="#39454b" stroke="#12181d" stroke-width="3" stroke-linejoin="round"/>
<polygon points="328.8,481.0 385.8,487.0 383.2,509.0 334.2,503.0" fill="#39454b" stroke="#12181d" stroke-width="3" stroke-linejoin="round"/>
<polygon points="354.5,496.5 372.5,493.5 364.5,506.5" fill="#1b2329" stroke="#1b2329" stroke-width="1" stroke-linejoin="round"/>
<polygon points="379.8,484.0 476.8,482.0 479.2,509.0 390.2,516.0" fill="#2b363f" stroke="#12181d" stroke-width="3" stroke-linejoin="round"/>
<polygon points="420.5,496.5 438.5,493.5 430.5,506.5" fill="#1b2329" stroke="#1b2329" stroke-width="1" stroke-linejoin="round"/>
<polygon points="472.8,483.0 499.8,485.0 523.2,505.0 478.2,512.0" fill="#202930" stroke="#12181d" stroke-width="3" stroke-linejoin="round"/>
</svg>
